<?xml version="1.0" standalone="no"?>
<!DOCTYPE svg PUBLIC "-//W3C//DTD SVG 20010904//EN"
 "http://www.w3.org/TR/2001/REC-SVG-20010904/DTD/svg10.dtd">
<svg version="1.0" xmlns="http://www.w3.org/2000/svg"
 width="136.000000pt" height="138.000000pt" viewBox="0 0 136.000000 138.000000"
 preserveAspectRatio="xMidYMid meet">
<metadata>
Created by potrace 1.16, written by Peter Selinger 2001-2019
</metadata>
<g transform="translate(0.000000,138.000000) scale(0.100000,-0.100000)"
fill="#000000" stroke="none">
<path d="M52 1344 c-22 -15 -22 -18 -22 -255 l0 -240 48 3 47 3 3 63 c2 42 7
62 16 62 7 0 35 11 62 25 l49 25 42 -47 43 -48 0 -254 0 -254 -40 -53 -40 -53
-47 24 c-25 14 -54 25 -64 25 -17 0 -19 8 -19 65 l0 65 -50 0 c-45 0 -50 -2
-50 -22 -4 -205 3 -454 12 -465 8 -10 65 -13 250 -13 l239 0 -3 52 -3 53 -62
3 c-60 3 -62 4 -73 37 -6 18 -21 46 -33 61 l-21 27 49 44 49 43 251 0 251 0
49 -43 49 -44 -21 -27 c-12 -15 -27 -43 -33 -61 -11 -33 -13 -34 -73 -37 l-62
-3 -3 -52 -3 -53 233 0 c128 0 238 4 245 8 27 17 33 69 33 278 l0 214 -55 0
-55 0 0 -65 c0 -56 -2 -65 -18 -65 -10 0 -40 -11 -66 -24 l-47 -24 -40 53 -39
52 0 252 0 251 37 50 c40 52 53 59 72 36 6 -7 32 -19 56 -26 l45 -13 0 -64 0
-64 53 3 52 3 0 233 c0 234 0 234 -24 253 -21 17 -42 19 -252 19 l-229 0 0
-55 0 -55 63 -1 62 0 33 -67 33 -67 -43 -37 -43 -37 -260 0 -260 0 -43 37 -43
37 33 67 33 67 63 1 62 0 0 55 0 55 -228 0 c-190 0 -231 -3 -250 -16z m466
-41 l3 -43 -65 0 c-63 0 -65 -1 -71 -29 -3 -17 -20 -49 -37 -72 -16 -22 -26
-45 -21 -49 4 -5 30 -27 58 -49 l50 -41 250 0 250 0 50 41 c28 22 54 44 58 49
5 4 -5 27 -21 49 -17 23 -34 55 -37 72 -6 28 -8 29 -71 29 l-65 0 3 43 3 42
214 3 c179 2 218 0 237 -13 l24 -15 0 -231 0 -230 -37 3 -36 3 -1 59 -1 59
-47 16 c-26 9 -57 24 -68 34 -11 9 -24 17 -28 17 -4 -1 -26 -26 -49 -57 l-43
-57 0 -260 0 -261 46 -57 46 -58 32 25 c18 13 50 28 72 33 l39 8 3 62 3 62 34
0 35 0 0 -228 c0 -164 -3 -231 -12 -240 -9 -9 -76 -12 -240 -12 l-228 0 0 40
0 40 60 0 61 0 20 48 c11 26 30 58 42 71 l22 23 -55 49 -55 49 -260 0 -260 0
-55 -49 -54 -48 27 -32 c14 -18 32 -50 38 -71 l12 -40 64 0 63 0 0 -40 0 -40
-228 0 c-164 0 -231 3 -240 12 -9 9 -12 76 -12 240 l0 228 40 0 40 0 0 -65 c0
-59 2 -65 20 -65 23 0 76 -24 101 -47 15 -13 22 -8 62 45 l46 59 1 139 c1 76
1 193 0 260 l0 120 -43 57 c-23 31 -47 56 -53 57 -6 0 -19 -8 -28 -19 -9 -10
-37 -24 -61 -31 l-44 -12 -3 -62 -3 -61 -37 -3 -38 -3 0 230 c0 196 2 232 16
245 14 14 46 16 237 14 l222 -3 3 -42z"/>
<path d="M1207 1270 c-6 -25 -64 -29 -73 -5 -4 10 -20 15 -50 15 l-44 0 0 -49
c0 -54 14 -73 48 -64 17 4 22 1 22 -15 0 -11 -7 -25 -15 -32 -13 -11 -13 -14
2 -25 12 -9 22 -10 30 -3 17 14 56 -9 49 -29 -10 -26 14 -43 59 -43 36 0 44 4
49 23 9 36 7 64 -7 75 -17 14 -10 82 9 89 15 6 8 63 -10 75 -23 16 -64 8 -69
-12z m57 4 c17 -6 22 -49 7 -58 -16 -10 -21 -89 -6 -100 8 -7 11 -23 8 -43 -5
-31 -8 -33 -44 -33 -34 0 -39 3 -39 24 0 29 -40 59 -61 45 -23 -14 -30 -10
-18 9 7 11 9 31 5 45 -5 21 -12 25 -34 24 -25 -2 -27 1 -30 41 -3 42 -3 42 31
42 23 0 39 -7 48 -19 18 -25 79 -18 86 10 5 20 20 23 47 13z"/>
<path d="M79 1278 c-10 -31 -8 -63 5 -70 19 -11 22 -84 5 -90 -8 -3 -10 -19
-5 -51 l7 -47 43 0 c46 0 70 17 61 42 -9 23 23 44 45 30 24 -14 51 11 32 30
-7 7 -12 21 -12 31 0 15 5 18 22 14 34 -9 48 10 48 64 l0 49 -45 0 c-31 0 -47
-5 -51 -15 -8 -19 -54 -19 -80 0 -16 12 -72 21 -75 13z m64 -22 c12 -7 37 -16
54 -19 26 -5 35 -2 43 13 8 14 21 20 46 20 l35 0 -3 -42 c-3 -40 -5 -43 -30
-41 -35 2 -55 -45 -30 -71 17 -17 6 -22 -17 -7 -21 14 -61 -16 -61 -45 0 -21
-5 -24 -39 -24 -37 0 -39 2 -43 36 -3 24 0 38 9 41 15 6 7 79 -12 103 -15 19
-8 50 11 50 8 0 25 -6 37 -14z"/>
<path d="M431 953 c-21 -18 -22 -24 -21 -272 0 -308 -7 -291 121 -291 84 0 89
1 105 25 23 35 5 99 -34 119 -110 57 -131 208 -40 293 46 43 141 57 196 29 36
-19 78 -65 91 -99 28 -74 -4 -171 -70 -212 -46 -29 -59 -52 -59 -99 0 -47 19
-56 117 -56 130 0 123 -16 123 286 0 241 -1 255 -20 274 -19 19 -33 20 -254
20 -208 0 -236 -2 -255 -17z m497 -8 c22 -16 22 -18 22 -265 0 -246 0 -249
-22 -264 -28 -20 -168 -22 -186 -4 -22 22 -14 68 19 98 16 16 43 41 59 56 38
35 53 83 48 150 -14 171 -249 228 -344 84 -63 -95 -34 -212 67 -276 34 -21 39
-29 39 -62 0 -54 -13 -62 -98 -62 -120 0 -112 -20 -112 275 0 247 1 254 21
269 33 23 454 23 487 1z"/>
<path d="M618 794 c-77 -41 -74 -160 4 -200 70 -36 155 6 165 83 13 97 -84
164 -169 117z m131 -29 c20 -20 26 -35 26 -71 0 -39 -5 -50 -33 -75 -43 -39
-90 -39 -132 -1 -75 68 -20 191 79 177 19 -2 46 -16 60 -30z"/>
<path d="M1183 319 c-6 -6 -9 -18 -6 -26 8 -21 -27 -43 -50 -31 -13 6 -23 6
-33 -3 -13 -10 -12 -14 2 -30 17 -19 12 -55 -6 -44 -6 3 -19 3 -30 0 -17 -5
-20 -15 -20 -61 l0 -54 44 0 c36 0 46 4 51 20 5 16 12 18 38 13 18 -3 39 -12
48 -19 23 -21 69 -18 69 4 0 9 3 27 6 40 5 16 2 22 -10 22 -12 0 -16 10 -16
39 0 22 5 43 10 46 11 7 13 54 4 79 -7 19 -84 22 -101 5z m90 -31 c3 -20 -1
-39 -9 -48 -14 -17 -8 -100 7 -100 5 0 9 -13 9 -30 0 -33 -22 -40 -49 -16 -9
8 -35 17 -58 21 -36 6 -42 4 -48 -15 -5 -17 -13 -20 -38 -18 -29 3 -32 6 -35
42 -4 47 8 62 37 47 18 -10 21 -8 27 15 4 15 2 35 -4 44 -13 21 -4 34 13 20
20 -16 65 9 65 35 0 29 8 35 46 35 28 0 32 -4 37 -32z"/>
<path d="M95 280 c-5 -28 -3 -46 6 -57 16 -18 12 -75 -5 -85 -7 -4 -10 -21 -8
-42 3 -25 10 -36 25 -40 36 -10 57 -7 57 8 0 20 61 40 72 24 4 -7 8 -16 8 -20
0 -5 20 -8 45 -8 l45 0 0 49 c0 54 -14 73 -48 64 -17 -4 -22 -1 -22 15 0 11 7
25 15 32 13 11 13 14 -2 25 -12 9 -22 10 -30 3 -17 -14 -56 9 -49 29 10 26
-14 43 -59 43 -43 0 -43 -1 -50 -40z m93 0 c5 -34 31 -51 67 -45 28 5 29 4 13
-11 -13 -13 -14 -22 -6 -45 10 -30 22 -37 33 -19 13 21 35 -12 35 -51 0 -37
-2 -39 -31 -39 -18 0 -38 8 -47 19 -22 25 -82 18 -90 -11 -3 -14 -11 -18 -26
-14 -11 3 -24 6 -28 6 -11 0 -10 60 1 60 14 0 21 84 8 92 -8 4 -11 22 -9 48 4
41 5 41 41 38 30 -2 37 -7 39 -28z"/>
</g>
</svg>
